<?xml version="1.0" standalone="no"?>
<!DOCTYPE svg PUBLIC "-//W3C//DTD SVG 20010904//EN"
 "http://www.w3.org/TR/2001/REC-SVG-20010904/DTD/svg10.dtd">
<svg version="1.0" xmlns="http://www.w3.org/2000/svg"
 width="550.000000pt" height="550.000000pt" viewBox="0 0 550.000000 550.000000"
 preserveAspectRatio="xMidYMid meet">
<metadata>
Created by potrace 1.14, written by Peter Selinger 2001-2017
</metadata>
<g transform="translate(0.000000,550.000000) scale(0.100000,-0.100000)"
fill="#000000" stroke="none">
<path d="M847 3478 l-595 -673 29 -30 c16 -17 29 -34 29 -38 0 -4 -31 -47 -70
-95 -38 -48 -70 -91 -70 -97 1 -5 23 -35 51 -65 l49 -54 29 34 c124 148 1042
1178 1064 1194 36 27 121 29 158 4 19 -12 1015 -1152 1120 -1282 15 -19 17
-18 60 29 65 70 65 70 23 121 l-37 46 35 36 35 37 -646 742 c-355 408 -651
747 -657 753 -9 9 -168 -165 -607 -662z"/>
<path d="M2980 3905 c0 -135 3 -245 6 -245 3 0 23 15 45 33 82 71 199 114 332
124 l87 6 0 163 0 164 -235 0 -235 0 0 -245z"/>
<path d="M3252 3550 c-74 -26 -114 -53 -165 -110 -49 -54 -81 -116 -97 -182
-6 -27 -10 -381 -10 -930 l0 -888 166 0 167 0 -7 105 -7 105 75 0 76 0 0 960
0 960 -72 0 c-46 -1 -93 -8 -126 -20z"/>
<path d="M3874 3557 c-2 -7 -3 -100 -2 -207 l3 -195 451 4 c501 4 535 1 579
-51 24 -28 25 -36 25 -151 0 -105 -3 -127 -20 -155 -37 -61 -48 -62 -475 -62
l-385 0 0 -41 0 -41 -87 3 -88 4 0 -170 0 -170 490 4 c474 4 492 3 536 -16 67
-30 79 -62 79 -215 0 -136 -11 -174 -63 -212 -28 -20 -42 -21 -535 -26 l-507
-5 0 -205 0 -205 520 3 c410 3 533 6 580 18 207 50 359 218 401 444 22 118 15
351 -14 430 -29 83 -55 130 -100 181 l-40 45 34 52 c60 90 76 149 81 314 4
114 2 162 -11 222 -47 208 -188 351 -397 401 -87 20 -1047 23 -1055 2z"/>
<path d="M1347 3428 c-41 -18 -120 -102 -615 -656 -312 -349 -578 -655 -592
-681 -34 -64 -35 -186 -2 -249 13 -24 111 -142 219 -263 l196 -220 24 23 c45
42 278 308 278 317 0 5 -51 66 -113 135 -63 70 -112 131 -110 136 4 11 499
568 618 695 47 50 110 119 140 154 l56 64 378 -424 c209 -233 390 -435 402
-449 l23 -25 -102 -116 c-56 -63 -108 -123 -116 -132 -12 -15 5 -37 144 -192
86 -97 161 -175 165 -173 23 8 395 438 414 478 32 69 29 179 -6 245 -16 29
-260 311 -590 680 -444 497 -572 635 -608 653 -58 29 -138 29 -203 0z"/>
<path d="M1308 2357 l-127 -122 124 -214 c69 -118 129 -219 133 -223 9 -9 251
396 257 430 2 11 -42 60 -120 135 -68 64 -127 117 -132 116 -4 0 -65 -55 -135
-122z"/>
</g>
</svg>
